# xmcd
#
# Track frame offsets:
# 150
# 23370
# 45138
# 65555
#
# Disc length: 1154 seconds
#
#
# Revision: 0
# Processed by: cddbd v1.5.2PL0 Copyright (c) Steve Scherf et al.
# Submitted via: FreeRIP 2.96 
#
DISCID=21048004
DTITLE=Falisa Janay'e - Talking Dirty
DYEAR=2009
DGENRE=Southern Soul Blues
TTITLE0=You Won't Miss (Your Water)
TTITLE1=Tonite's The Night
TTITLE2=Sweet Love
TTITLE3=Cowboy
EXTD=
EXTT0=
EXTT1=
EXTT2=
EXTT3=
PLAYORDER=
